HIERARCHY
ROOT Hips
{
  OFFSET 5.72205e-005 65.662 3.42586
  CHANNELS 6 Xposition Yposition Zposition Zrotation Xrotation Yrotation
  JOINT Chest
  {
    OFFSET 0 8.7983 -4.7612
    CHANNELS 3 Zrotation Xrotation Yrotation
    JOINT Chest2
    {
      OFFSET 0 8.0291 0.4195
      CHANNELS 3 Zrotation Xrotation Yrotation
      JOINT Chest3
      {
        OFFSET 0 9.9351 -2.2114
        CHANNELS 3 Zrotation Xrotation Yrotation
        JOINT Neck
        {
          OFFSET 0 22.3885 -0.4656
          CHANNELS 3 Zrotation Xrotation Yrotation
          JOINT Head
          {
            OFFSET -0.0001 12.643 3.4389
            CHANNELS 3 Zrotation Xrotation Yrotation
            End Site
            {
              OFFSET 0.0001 17.6655 0.5274
            }
          }
        }
        JOINT LeftCollar
        {
          OFFSET 2.2603 21.606 7.4023
          CHANNELS 3 Zrotation Xrotation Yrotation
          JOINT LeftShoulder
          {
            OFFSET 13.5163 -1.1332 -5.0146
            CHANNELS 3 Zrotation Xrotation Yrotation
            JOINT LeftElbow
            {
              OFFSET -0.0995 -28.05 -0.2431
              CHANNELS 3 Zrotation Xrotation Yrotation
              JOINT LeftWrist
              {
                OFFSET 0.0679 -23.3996 -0.1402
                CHANNELS 3 Zrotation Xrotation Yrotation
                JOINT LeftFinger1
                {
                  OFFSET 0.7932 -9.069 2.5189
                  CHANNELS 3 Zrotation Xrotation Yrotation
                  JOINT LeftFinger11
                  {
                    OFFSET -0.8272 -3.3923 0.5977
                    CHANNELS 3 Zrotation Xrotation Yrotation
                    JOINT LeftFinger12
                    {
                      OFFSET -0.5649 -2.3158 0.4082
                      CHANNELS 3 Zrotation Xrotation Yrotation
                      End Site
                      {
                        OFFSET -0.4919 -1.6479 0.2673
                      }
                    }
                  }
                }
                JOINT LeftFinger2
                {
                  OFFSET 0.9159 -9.2044 0.2193
                  CHANNELS 3 Zrotation Xrotation Yrotation
                  JOINT LeftFinger21
                  {
                    OFFSET 0.0117 -4.1944 -0.0248
                    CHANNELS 3 Zrotation Xrotation Yrotation
                    JOINT LeftFinger22
                    {
                      OFFSET 0.0071 -2.3249 -0.0142
                      CHANNELS 3 Zrotation Xrotation Yrotation
                      End Site
                      {
                        OFFSET -0.1475 -2.0882 0.0028
                      }
                    }
                  }
                }
                JOINT LeftFinger3
                {
                  OFFSET 0.6113 -8.7231 -2.0637
                  CHANNELS 3 Zrotation Xrotation Yrotation
                  JOINT LeftFinger31
                  {
                    OFFSET -0.1927 -3.8059 -0.2383
                    CHANNELS 3 Zrotation Xrotation Yrotation
                    JOINT LeftFinger32
                    {
                      OFFSET -0.1091 -2.1688 -0.1362
                      CHANNELS 3 Zrotation Xrotation Yrotation
                      End Site
                      {
                        OFFSET -0.2358 -1.9176 -0.0906
                      }
                    }
                  }
                }
                JOINT LeftFinger4
                {
                  OFFSET -0.6151 -8.0947 -3.5641
                  CHANNELS 3 Zrotation Xrotation Yrotation
                  JOINT LeftFinger41
                  {
                    OFFSET -0.4882 -2.341 -0.6462
                    CHANNELS 3 Zrotation Xrotation Yrotation
                    JOINT LeftFinger42
                    {
                      OFFSET -0.3575 -1.7167 -0.4742
                      CHANNELS 3 Zrotation Xrotation Yrotation
                      End Site
                      {
                        OFFSET -0.4187 -1.5237 -0.3496
                      }
                    }
                  }
                }
                JOINT LeftFinger0
                {
                  OFFSET -1.42 -1.8761 1.4223
                  CHANNELS 3 Zrotation Xrotation Yrotation
                  JOINT LeftFinger01
                  {
                    OFFSET -1.1471 -3.4929 2.6334
                    CHANNELS 3 Zrotation Xrotation Yrotation
                    JOINT LeftFinger02
                    {
                      OFFSET -0.823 -2.3 1.6571
                      CHANNELS 3 Zrotation Xrotation Yrotation
                      End Site
                      {
                        OFFSET -0.5822 -1.6914 1.1582
                      }
                    }
                  }
                }
              }
            }
          }
        }
        JOINT RightCollar
        {
          OFFSET -2.2603 21.606 7.4023
          CHANNELS 3 Zrotation Xrotation Yrotation
          JOINT RightShoulder
          {
            OFFSET -13.5187 -1.1334 -5.0155
            CHANNELS 3 Zrotation Xrotation Yrotation
            JOINT RightElbow
            {
              OFFSET 0.0994 -28.0499 -0.2431
              CHANNELS 3 Zrotation Xrotation Yrotation
              JOINT RightWrist
              {
                OFFSET -0.0679 -23.3996 -0.1402
                CHANNELS 3 Zrotation Xrotation Yrotation
                JOINT RightFinger1
                {
                  OFFSET -0.7932 -9.0691 2.5189
                  CHANNELS 3 Zrotation Xrotation Yrotation
                  JOINT RightFinger11
                  {
                    OFFSET 0.8272 -3.3923 0.5977
                    CHANNELS 3 Zrotation Xrotation Yrotation
                    JOINT RightFinger12
                    {
                      OFFSET 0.565 -2.3158 0.4082
                      CHANNELS 3 Zrotation Xrotation Yrotation
                      End Site
                      {
                        OFFSET 0.4919 -1.6479 0.2673
                      }
                    }
                  }
                }
                JOINT RightFinger2
                {
                  OFFSET -0.916 -9.2044 0.2193
                  CHANNELS 3 Zrotation Xrotation Yrotation
                  JOINT RightFinger21
                  {
                    OFFSET -0.0117 -4.1944 -0.0248
                    CHANNELS 3 Zrotation Xrotation Yrotation
                    JOINT RightFinger22
                    {
                      OFFSET -0.0071 -2.3249 -0.0142
                      CHANNELS 3 Zrotation Xrotation Yrotation
                      End Site
                      {
                        OFFSET 0.1475 -2.0882 0.0028
                      }
                    }
                  }
                }
                JOINT RightFinger3
                {
                  OFFSET -0.6113 -8.7231 -2.0637
                  CHANNELS 3 Zrotation Xrotation Yrotation
                  JOINT RightFinger31
                  {
                    OFFSET 0.1927 -3.8059 -0.2383
                    CHANNELS 3 Zrotation Xrotation Yrotation
                    JOINT RightFinger32
                    {
                      OFFSET 0.1091 -2.1688 -0.1362
                      CHANNELS 3 Zrotation Xrotation Yrotation
                      End Site
                      {
                        OFFSET 0.2358 -1.9176 -0.0906
                      }
                    }
                  }
                }
                JOINT RightFinger4
                {
                  OFFSET 0.6151 -8.0947 -3.564
                  CHANNELS 3 Zrotation Xrotation Yrotation
                  JOINT RightFinger41
                  {
                    OFFSET 0.4882 -2.341 -0.6462
                    CHANNELS 3 Zrotation Xrotation Yrotation
                    JOINT RightFinger42
                    {
                      OFFSET 0.3574 -1.7166 -0.4742
                      CHANNELS 3 Zrotation Xrotation Yrotation
                      End Site
                      {
                        OFFSET 0.4187 -1.5237 -0.3496
                      }
                    }
                  }
                }
                JOINT RightFinger0
                {
                  OFFSET 1.4199 -1.8761 1.4221
                  CHANNELS 3 Zrotation Xrotation Yrotation
                  JOINT RightFinger01
                  {
                    OFFSET 1.1472 -3.4929 2.6336
                    CHANNELS 3 Zrotation Xrotation Yrotation
                    JOINT RightFinger02
                    {
                      OFFSET 0.8229 -2.3 1.6571
                      CHANNELS 3 Zrotation Xrotation Yrotation
                      End Site
                      {
                        OFFSET 0.5822 -1.6914 1.1582
                      }
                    }
                  }
                }
              }
            }
          }
        }
      }
    }
  }
  JOINT RightHip
  {
    OFFSET -9.412 3.9771 -0.7758
    CHANNELS 3 Zrotation Xrotation Yrotation
    JOINT RightKnee
    {
      OFFSET -0.7531 -40.938 0
      CHANNELS 3 Zrotation Xrotation Yrotation
      JOINT RightAnkle
      {
        OFFSET 0 -40.1986 0
        CHANNELS 3 Zrotation Xrotation Yrotation
        JOINT RightToe
        {
          OFFSET 0 -4.4182 9.239
          CHANNELS 3 Zrotation Xrotation Yrotation
          End Site
          {
            OFFSET 0 0 6.1981
          }
        }
      }
    }
  }
  JOINT LeftHip
  {
    OFFSET 9.4119 3.9773 -0.7758
    CHANNELS 3 Zrotation Xrotation Yrotation
    JOINT LeftKnee
    {
      OFFSET 0.7532 -40.9383 0
      CHANNELS 3 Zrotation Xrotation Yrotation
      JOINT LeftAnkle
      {
        OFFSET 0 -40.1986 0
        CHANNELS 3 Zrotation Xrotation Yrotation
        JOINT LeftToe
        {
          OFFSET 0 -4.4182 9.239
          CHANNELS 3 Zrotation Xrotation Yrotation
          End Site
          {
            OFFSET 0 0 6.1981
          }
        }
      }
    }
  }
}
MOTION
Frames:	7
Frame Time:	0.0333333
0.00988147 3.48875 8.51537 180 -81.997 180 -0.0357316 0.0803075 -0.195668 -0.0711908 0.160711 -0.391296 -0.0711909 0.160718 -0.391296 -0.000210977 33.2727 0.000533536 4.39594e-007 -7.33314 6.35493e-008 16.1405 4.53698 -5.48422 105.542 -17.9003 91.7054 -173.149 -47.3416 164.801 -12.1498 -21.8443 9.18845 -7.86365e-008 -2.00122e-007 -5.03426e-008 2.79541e-016 -3.97569e-016 9.93923e-017 7.86365e-008 2.00122e-007 5.03426e-008 -7.86365e-008 -2.00122e-007 -5.03426e-008 -0.0128188 0.00232584 8.57811e-005 4.3455e-008 -5.09878e-010 7.45701e-007 -7.86365e-008 -2.00122e-007 -5.03426e-008 -0.0160526 0.00299657 0.000856458 4.34469e-008 4.24468e-007 7.45701e-007 -7.86365e-008 -2.00122e-007 -5.03426e-008 -0.0125813 0.00312003 0.00282432 3.04389e-016 7.95139e-016 9.93923e-017 -7.86365e-008 -2.00122e-007 -5.03426e-008 2.79541e-016 -3.97569e-016 9.93923e-017 7.86365e-008 2.00122e-007 5.03426e-008 -16.9857 4.80733 0.0862783 -103.938 -22.1531 -92.9232 176.327 -47.0596 -162.948 12.3693 -21.6904 -9.2179 -3.14624e-008 2.13108e-007 -8.53107e-007 -6.88241e-008 -1.04598e-009 -1.86617e-006 -1.9664e-008 -2.25446e-011 -5.33192e-007 -3.14624e-008 2.13108e-007 -8.53107e-007 0.0129498 0.00231741 -8.74057e-005 1.01991e-005 -2.66944e-007 -1.22426e-006 -3.14624e-008 2.13108e-007 -8.53107e-007 0.0163394 0.0030362 -0.000874702 -3.66509e-016 1.19271e-015 -0 -3.14624e-008 2.13108e-007 -8.53107e-007 0.0146004 0.00368325 -0.00326536 1.2424e-016 7.95139e-016 2.98177e-016 -3.14624e-008 2.13108e-007 -8.53107e-007 -6.88241e-008 -1.04598e-009 -1.86617e-006 -1.9664e-008 -2.25446e-011 -5.33192e-007 -39.7966 7.44051 -36.6037 -59.323 49.3806 45.5122 9.52965 -3.83293 -1.63512 3.18055e-015 1.73764e-006 -0 39.7754 7.43437 36.5738 58.3237 48.8112 -44.2173 -9.53706 -3.78334 1.61147 -1.76556e-031 1.59028e-015 6.36111e-015 
0.00937406 3.48559 8.5126 -180 -81.997 -180 -0.035876 0.11956 -0.195582 -0.0713438 0.239231 -0.391091 -0.0713438 0.239235 -0.391091 0.000420331 33.619 -0.00105088 -3.67962e-007 -6.49557 1.17002e-007 16.1404 4.53733 -5.48569 105.542 -17.9004 91.7054 -173.149 -47.3416 164.801 -12.1498 -21.8443 9.18845 -1.98785e-016 3.97569e-016 3.97569e-016 -3.85145e-016 0 1.98785e-016 -1.73937e-016 0 1.98785e-016 -1.98785e-016 3.97569e-016 3.97569e-016 -0.0128116 0.00232487 8.66228e-005 5.8393e-016 -3.97569e-016 3.97569e-016 -1.98785e-016 3.97569e-016 3.97569e-016 -0.0160192 0.00299131 0.000857316 -5.34234e-016 7.95139e-016 1.98785e-016 -1.98785e-016 3.97569e-016 3.97569e-016 -0.0126093 0.00312861 0.00283225 1.38636e-007 -3.07101e-008 -2.4266e-007 -1.98785e-016 3.97569e-016 3.97569e-016 -3.85145e-016 0 1.98785e-016 -1.73937e-016 0 1.98785e-016 -16.9858 4.80842 0.0852263 -103.938 -22.1531 -92.9232 176.327 -47.0596 -162.948 12.3692 -21.6904 -9.21789 -3.1568e-008 2.12704e-007 -8.53057e-007 3.1568e-008 -2.12704e-007 8.53057e-007 -3.1568e-008 2.12704e-007 -8.53057e-007 -3.1568e-008 2.12704e-007 -8.53057e-007 0.0129566 0.00231727 -8.54922e-005 -3.5479e-008 -4.27042e-007 -9.5969e-007 -3.1568e-008 2.12704e-007 -8.53057e-007 0.016313 0.00302952 -0.000872436 -3.15271e-008 2.13009e-007 -8.53058e-007 -3.1568e-008 2.12704e-007 -8.53057e-007 0.0145585 0.00367069 -0.00325736 -2.36379e-008 -4.52302e-010 -6.39793e-007 -3.1568e-008 2.12704e-007 -8.53057e-007 3.1568e-008 -2.12704e-007 8.53057e-007 -3.1568e-008 2.12704e-007 -8.53057e-007 -39.797 7.43715 -36.616 -59.6481 49.5551 45.9267 9.52462 -3.85366 -1.64534 1.674e-007 -2.88796e-006 1.47387e-006 39.7766 7.43099 36.5875 58.6903 49.0199 -44.6893 -9.53201 -3.80674 1.62302 6.36111e-015 0 -3.18055e-015 
0.00891644 3.48274 8.5101 -180 -81.997 -180 -0.0360678 0.155119 -0.195852 -0.0716054 0.310385 -0.391608 -0.0716053 0.310376 -0.391608 0.000145624 33.9298 -0.000360246 9.11185e-008 -5.74112 -4.48718e-008 16.1405 4.53719 -5.48505 105.542 -17.9003 91.7054 -173.149 -47.3416 164.801 -12.1498 -21.8443 9.18845 5.59082e-016 0 -0 5.71506e-016 0 -0 3.72721e-016 0 1.98785e-016 5.59082e-016 0 -0 -0.0128119 0.00232393 8.48606e-005 2.60905e-016 -3.97569e-016 -0 5.59082e-016 0 -0 -0.0160446 0.00299536 0.000858909 4.96962e-017 0 -0 5.59082e-016 0 -0 -0.0125665 0.00311457 0.00282126 4.34841e-016 7.95139e-016 -1.98785e-016 5.59082e-016 0 -0 5.71506e-016 0 -0 3.72721e-016 0 1.98785e-016 -16.9858 4.80795 0.0856884 -103.938 -22.1531 -92.9232 176.327 -47.0596 -162.948 12.3692 -21.6904 -9.2179 1.86361e-017 7.95139e-016 -1.98785e-016 -3.72721e-016 0 -0 -3.78933e-016 3.97569e-016 -1.98785e-016 1.86361e-017 7.95139e-016 -1.98785e-016 0.0129602 0.00231736 -8.58492e-005 4.53478e-016 0 1.98785e-016 1.86361e-017 7.95139e-016 -1.98785e-016 0.0163279 0.0030334 -0.000872904 -1.30452e-016 7.95139e-016 -1.98785e-016 1.86361e-017 7.95139e-016 -1.98785e-016 0.014586 0.0036774 -0.00326151 -1.25421e-014 3.97569e-016 7.95139e-016 1.86361e-017 7.95139e-016 -1.98785e-016 -3.72721e-016 0 -0 -3.78933e-016 3.97569e-016 -1.98785e-016 -39.7973 7.43417 -36.6271 -59.9431 49.711 46.3022 9.52005 -3.87226 -1.65455 2.68373e-007 -6.42372e-006 -1.03988e-005 39.7777 7.42801 36.5998 59.0235 49.206 -45.1172 -9.52738 -3.82771 1.63334 3.18055e-015 9.54166e-015 -3.18055e-015 
0.00845957 3.4799 8.50759 -180 -81.997 -180 -0.0362471 0.190709 -0.196059 -0.0718419 0.381524 -0.392 -0.0718419 0.381508 -0.392 1.62213e-005 34.2407 -3.96531e-005 -1.34462e-007 -4.9861 1.13014e-007 16.1405 4.53707 -5.48474 105.542 -17.9003 91.7054 -173.149 -47.3416 164.801 -12.1498 -21.8443 9.18844 -3.72721e-016 0 -1.98785e-016 4.96962e-017 0 -0 -3.23025e-016 0 1.98785e-016 -3.72721e-016 0 -1.98785e-016 -0.0128088 0.00232444 8.50389e-005 2.48481e-017 -3.97569e-016 -0 -3.72721e-016 0 -1.98785e-016 -0.0160396 0.00299481 0.00085716 -1.24628e-008 3.2461e-010 -2.13013e-007 -3.72721e-016 0 -1.98785e-016 -0.0125953 0.00312247 0.00282952 4.84538e-016 3.97569e-016 -1.98785e-016 -3.72721e-016 0 -1.98785e-016 4.96962e-017 0 -0 -3.23025e-016 0 1.98785e-016 -16.9857 4.80771 0.0858888 -103.938 -22.1531 -92.9232 176.327 -47.0596 -162.948 12.3693 -21.6904 -9.21791 -2.38178e-008 -2.13663e-007 -6.39705e-007 -1.19089e-008 -2.14038e-007 -3.19852e-007 -3.1757e-008 -2.13663e-007 -8.5294e-007 -2.38178e-008 -2.13663e-007 -6.39705e-007 0.0129498 0.00231786 -8.80256e-005 -7.93178e-009 4.26497e-007 -2.13235e-007 -2.38178e-008 -2.13663e-007 -6.39705e-007 0.0163123 0.00303004 -0.000872042 1.12541e-007 9.4216e-007 -6.19488e-007 -2.38178e-008 -2.13663e-007 -6.39705e-007 0.0145756 0.00367838 -0.00326212 1.00554e-007 -1.24851e-007 -9.39481e-007 -2.38178e-008 -2.13663e-007 -6.39705e-007 -1.19089e-008 -2.14038e-007 -3.19852e-007 -3.1757e-008 -2.13663e-007 -8.5294e-007 -39.7976 7.43129 -36.6383 -60.2406 49.8657 46.6799 9.51537 -3.89085 -1.66373 1.16901e-007 -1.37479e-006 -4.34451e-007 39.7788 7.4251 36.6122 59.3602 49.3906 -45.5483 -9.52264 -3.84866 1.64364 3.18055e-015 -3.19816e-006 -3.18055e-015 
0.00800282 3.47706 8.50508 180 -81.997 180 -0.0364162 0.226254 -0.196218 -0.0720571 0.452617 -0.392289 -0.0720569 0.45261 -0.392289 8.83754e-006 34.5519 -2.09553e-005 -2.11749e-007 -4.23059 6.06334e-008 16.1405 4.53705 -5.48472 105.542 -17.9003 91.7055 -173.149 -47.3418 164.801 -12.1498 -21.8443 9.18845 -3.97569e-016 3.97569e-016 -1.98785e-016 -2.36057e-016 7.95139e-016 -0 -2.60905e-016 3.97569e-016 -0 -3.97569e-016 3.97569e-016 -1.98785e-016 -0.0128263 0.00232579 8.41862e-005 -1.98785e-016 3.97569e-016 -0 -3.97569e-016 3.97569e-016 -1.98785e-016 -0.0160616 0.00299781 0.000858238 2.48481e-017 -7.95139e-016 -0 -3.97569e-016 3.97569e-016 -1.98785e-016 -0.0125934 0.00312137 0.0028287 1.2424e-016 3.97569e-016 3.97569e-016 -3.97569e-016 3.97569e-016 -1.98785e-016 -2.36057e-016 7.95139e-016 -0 -2.60905e-016 3.97569e-016 -0 -16.9857 4.80765 0.0858897 -103.938 -22.1531 -92.9232 176.327 -47.0596 -162.948 12.3693 -21.6904 -9.21789 2.89983e-007 1.78987e-007 5.52386e-007 -1.24737e-014 3.97569e-016 5.96354e-016 -2.89983e-007 -1.78987e-007 -5.52386e-007 2.89983e-007 1.78987e-007 5.52386e-007 0.0129468 0.00231648 -8.80919e-005 -1.73937e-016 -3.97569e-016 1.98785e-016 2.89983e-007 1.78987e-007 5.52386e-007 0.0163276 0.0030324 -0.000873365 1.80149e-015 0 -0 2.89983e-007 1.78987e-007 5.52386e-007 0.0145862 0.00367741 -0.00326219 -1.02703e-005 -7.94153e-008 -6.95588e-007 2.89983e-007 1.78987e-007 5.52386e-007 -1.24737e-014 3.97569e-016 5.96354e-016 -2.89983e-007 -1.78987e-007 -5.52386e-007 -39.798 7.42854 -36.6494 -60.5403 50.0191 47.0599 9.5106 -3.90939 -1.67292 -3.38701e-006 6.09157e-006 -5.76136e-006 39.7799 7.42235 36.6246 59.6999 49.5735 -45.9825 -9.51781 -3.86954 1.65397 -4.36488e-006 -1.2633e-005 1.26008e-005 
0.00754681 3.47422 8.50256 -180 -81.997 -180 -0.0365874 0.261846 -0.196393 -0.0722792 0.523838 -0.392631 -0.0722795 0.523842 -0.392631 -6.41841e-005 34.8629 0.000153804 -3.16878e-007 -3.47466 -1.78118e-007 16.1405 4.53692 -5.48453 105.542 -17.9004 91.7054 -173.149 -47.3416 164.801 -12.1498 -21.8443 9.18845 -5.71506e-016 -3.97569e-016 -1.98785e-016 -3.47873e-016 -3.97569e-016 5.96354e-016 -1.49089e-016 0 -0 -5.71506e-016 -3.97569e-016 -1.98785e-016 -0.0128299 0.00232472 8.43569e-005 -1.2424e-016 0 -0 -5.71506e-016 -3.97569e-016 -1.98785e-016 -0.0160395 0.00299405 0.000855243 2.60905e-016 1.19271e-015 -1.98785e-016 -5.71506e-016 -3.97569e-016 -1.98785e-016 -0.0125575 0.003116 0.00282354 4.99731e-008 2.11878e-007 8.51897e-007 -5.71506e-016 -3.97569e-016 -1.98785e-016 -3.47873e-016 -3.97569e-016 5.96354e-016 -1.49089e-016 0 -0 -16.9857 4.80746 0.0859818 -103.938 -22.1531 -92.9232 176.327 -47.0596 -162.948 12.3692 -21.6904 -9.21791 -5.8393e-016 -7.95139e-016 -0 -5.8393e-016 -3.97569e-016 -0 -1.98785e-016 -7.95139e-016 -0 -5.8393e-016 -7.95139e-016 -0 0.0129614 0.00231915 -8.63326e-005 -2.48481e-017 -3.97569e-016 5.96354e-016 -5.8393e-016 -7.95139e-016 -0 0.0163398 0.00303628 -0.000874559 -1.27843e-014 -7.95139e-016 3.97569e-016 -5.8393e-016 -7.95139e-016 -0 0.014587 0.0036799 -0.00326372 -1.32813e-014 -3.97569e-016 7.95139e-016 -5.8393e-016 -7.95139e-016 -0 -5.8393e-016 -3.97569e-016 -0 -1.98785e-016 -7.95139e-016 -0 -39.7984 7.42586 -36.6606 -60.8426 50.1711 47.4423 9.50582 -3.92786 -1.68206 -4.57371e-006 -8.02201e-007 -4.24259e-007 39.7811 7.41969 36.6369 60.0429 49.7548 -46.4198 -9.51291 -3.89039 1.66424 -4.87477e-007 -1.2413e-005 1.84528e-005 
0.00709013 3.47139 8.50003 -180 -81.997 -180 -0.0367347 0.297312 -0.196446 -0.0724502 0.594708 -0.392703 -0.0724514 0.594721 -0.392709 0.000199016 35.1748 -0.000472277 1.89752e-007 -2.71845 -3.11926e-008 16.1405 4.53751 -5.48524 105.542 -17.9003 91.7055 -173.149 -47.3418 164.801 -12.1498 -21.8443 9.18845 -2.73329e-016 1.19271e-015 -3.97569e-016 -2.73329e-016 1.19271e-015 3.97569e-016 -7.45443e-017 1.19271e-015 -3.97569e-016 -2.73329e-016 1.19271e-015 -3.97569e-016 -0.0128131 0.00232464 8.46773e-005 -3.47873e-016 -7.95139e-016 7.95139e-016 -2.73329e-016 1.19271e-015 -3.97569e-016 -0.0160341 0.00299415 0.000855743 -1.98785e-016 7.95139e-016 7.95139e-016 -2.73329e-016 1.19271e-015 -3.97569e-016 -0.0125798 0.00311829 0.00282389 9.93923e-017 -7.95139e-016 3.97569e-016 -2.73329e-016 1.19271e-015 -3.97569e-016 -2.73329e-016 1.19271e-015 3.97569e-016 -7.45443e-017 1.19271e-015 -3.97569e-016 -16.9858 4.80832 0.0857073 -103.938 -22.1531 -92.9232 176.327 -47.0596 -162.948 12.3692 -21.6904 -9.21789 -1.08089e-015 0 -3.97569e-016 -6.70898e-016 3.97569e-016 -3.97569e-016 1.36664e-016 3.97569e-016 -3.97569e-016 -1.08089e-015 0 -3.97569e-016 0.0129479 0.00231709 -8.78574e-005 -8.07563e-016 -3.97569e-016 7.95139e-016 -1.08089e-015 0 -3.97569e-016 0.0163348 0.0030347 -0.000873789 -4.47266e-016 0 3.97569e-016 -1.08089e-015 0 -3.97569e-016 0.0145768 0.00367713 -0.00326097 -1.2275e-014 7.95139e-016 1.19271e-015 -1.08089e-015 0 -3.97569e-016 -6.70898e-016 3.97569e-016 -3.97569e-016 1.36664e-016 3.97569e-016 -3.97569e-016 -39.7987 7.42318 -36.6718 -61.1473 50.3219 47.8269 9.50095 -3.94633 -1.69117 3.18055e-015 4.23162e-007 -3.18055e-015 39.7823 7.41711 36.6494 60.3892 49.9343 -46.8601 -9.50791 -3.91122 1.67451 -3.18055e-015 -3.79522e-008 -0 
